<?xml version="1.0" standalone="no"?>
<!DOCTYPE svg PUBLIC "-//W3C//DTD SVG 20010904//EN"
 "http://www.w3.org/TR/2001/REC-SVG-20010904/DTD/svg10.dtd">
<svg version="1.0" xmlns="http://www.w3.org/2000/svg"
 width="1024.000000pt" height="1024.000000pt" viewBox="0 0 1024.000000 1024.000000"
 preserveAspectRatio="xMidYMid meet">
<metadata>
Created by potrace 1.11, written by Peter Selinger 2001-2013
</metadata>
<g transform="translate(0.000000,1024.000000) scale(0.100000,-0.100000)"
fill="#000000" stroke="none">
<path d="M813 6533 c3 -1325 7 -2426 10 -2448 2 -22 8 -69 12 -105 10 -97 13
-119 19 -148 5 -26 11 -61 22 -127 24 -161 99 -416 184 -630 169 -428 478
-854 815 -1125 44 -36 85 -70 92 -76 21 -20 266 -181 323 -212 99 -54 283
-143 375 -182 131 -55 408 -140 539 -166 199 -39 260 -49 366 -60 36 -3 94
-10 130 -14 174 -20 625 -18 825 4 17 2 57 7 90 10 84 9 174 24 285 46 52 10
106 21 120 24 117 22 348 99 530 174 832 348 1406 991 1679 1882 20 68 52 195
76 310 1 5 10 58 20 126 3 16 8 45 11 64 3 19 7 51 9 70 11 111 18 191 21 235
2 37 6 4310 4 4693 l0 62 -884 0 -885 0 0 -2302 c0 -1267 -3 -2341 -6 -2388
-14 -229 -44 -388 -107 -575 -35 -104 -129 -310 -148 -325 -4 -3 -13 -16 -20
-30 -37 -71 -179 -230 -275 -306 -170 -137 -396 -238 -620 -278 -123 -22 -153
-24 -320 -25 -129 -1 -261 5 -274 13 -3 2 -31 7 -61 11 -30 4 -58 9 -61 11 -3
2 -20 6 -39 9 -58 10 -213 67 -290 105 -460 233 -728 681 -787 1319 -4 42 -8
1130 -8 2418 l0 2343 -888 0 -888 0 4 -2407z"/>
<path d="M8715 3014 c-100 -17 -118 -22 -169 -44 -25 -10 -46 -17 -46 -15 0 7
-110 -55 -174 -98 -179 -121 -331 -355 -362 -557 -3 -19 -7 -46 -10 -60 -2
-14 -4 -66 -4 -117 0 -334 189 -640 485 -787 199 -99 391 -123 639 -81 22 4
76 20 122 36 258 91 450 281 543 535 37 101 41 124 48 269 4 86 1 143 -10 200
-60 318 -289 575 -605 681 -79 27 -87 29 -157 40 -69 12 -227 11 -300 -2z"/>
</g>
</svg>
