<?xml version="1.0" encoding="UTF-8"?>
<svg width="1595px" height="1597px" viewBox="0 0 1595 1597" version="1.1" xmlns="http://www.w3.org/2000/svg" xmlns:xlink="http://www.w3.org/1999/xlink">
    <!-- Generator: Sketch 43.2 (39069) - http://www.bohemiancoding.com/sketch -->
    <title>Shape</title>
    <desc>Created with Sketch.</desc>
    <defs></defs>
    <g id="Page-1" stroke="none" stroke-width="1" fill="none" fill-rule="evenodd">
        <g id="Artsy_logo" fill-rule="nonzero" fill="#FFFFFF">
            <path d="M0.25,0.25 L0.25,1596.75 L1594.75,1596.75 L1594.75,0.25 L0.25,0.25 Z M115.29,116.29 L1479.69,116.29 L1479.69,1480.69 L1237.61,1480.69 L1237.61,1168.28 L1123.57,1168.28 L1123.57,1480.69 L115.27,1480.69 L115.27,116.29 L115.29,116.29 Z M516.98,280.34 L282.53,884.53 L403.76,884.53 L467.092,714.48 L694.352,714.48 L756.747,884.53 L878.037,884.53 L643.587,280.34 L516.987,280.34 L516.98,280.34 Z M575.311,402.38 L652.21,612.45 L497.41,612.45 L575.309,402.38 L575.311,402.38 Z" id="Shape"></path>
        </g>
    </g>
</svg>